<?xml version="1.0" encoding="utf-8"?><!-- Uploaded to: SVG Repo, www.svgrepo.com, Generator: SVG Repo Mixer Tools -->
<svg width="800px" height="800px" viewBox="0 0 24 24" fill="none" xmlns="http://www.w3.org/2000/svg">
<circle cx="12" cy="12" r="9" stroke="#000000" stroke-width="2" stroke-linecap="round" stroke-linejoin="round"/>
<path d="M12.9997 3.0481C12.6517 3.34099 12.3382 3.68664 12.0714 4.08265C10.5286 6.3729 11.1346 9.48019 13.4248 11.023C13.6056 11.1448 13.7915 11.2532 13.9813 11.3484C15.9997 12.3612 16.7703 10.9962 17.8632 11.7323C18.572 12.2099 18.7596 13.1716 18.2821 13.8805C17.7816 14.6234 16.9997 15 17.135 16.2168C17.2113 16.9036 17.6333 17.4954 18.18 18" stroke="#000000" stroke-width="2" stroke-linecap="round" stroke-linejoin="round"/>
<path d="M4 9.28003C5.08188 9.54331 6.083 10.1678 6.80601 11.1259C7.57668 12.1472 7.89615 13.3684 7.79785 14.5504C7.74578 15.1764 8.15405 15.8083 8.6794 16.1526C8.93324 16.319 9.16323 16.5312 9.35655 16.7874C10.2126 17.9218 10.0418 19.511 9 20.4407" stroke="#000000" stroke-width="2" stroke-linecap="round" stroke-linejoin="round"/>
</svg>